<?xml version="1.0" encoding="UTF-8"?>
<svg id="_レイヤー_2" data-name="レイヤー 2" xmlns="http://www.w3.org/2000/svg" viewBox="0 0 64.7 64.7">
  <defs>
    <style>
      .cls-1 {
        fill: none;
      }

      .cls-2 {
        fill: #006e1c;
      }
    </style>
  </defs>
  <g id="_レイヤー_1-2" data-name="レイヤー 1">
    <g>
      <rect class="cls-1" width="64.7" height="64.7"/>
      <g>
        <polygon class="cls-2" points="38.55 45.94 26.48 45.94 26.48 44.94 37.55 44.94 37.55 16.36 14.29 16.36 14.29 44.94 15.76 44.94 15.76 45.94 13.29 45.94 13.29 15.36 38.55 15.36 38.55 45.94"/>
        <polygon class="cls-2" points="56.87 46.25 49.87 46.25 49.87 45.25 55.87 45.25 55.87 31.95 48.96 21.59 38.05 21.59 38.05 20.59 49.5 20.59 56.87 31.65 56.87 46.25"/>
        <path class="cls-2" d="M44.13,50.98c-3.24,0-5.88-2.64-5.88-5.88s2.64-5.88,5.88-5.88,5.88,2.64,5.88,5.88-2.64,5.88-5.88,5.88ZM44.13,40.23c-2.69,0-4.88,2.19-4.88,4.88s2.19,4.88,4.88,4.88,4.88-2.19,4.88-4.88-2.19-4.88-4.88-4.88Z"/>
        <path class="cls-2" d="M21.12,50.98c-3.24,0-5.88-2.64-5.88-5.88s2.64-5.88,5.88-5.88,5.88,2.64,5.88,5.88-2.64,5.88-5.88,5.88ZM21.12,40.23c-2.69,0-4.88,2.19-4.88,4.88s2.19,4.88,4.88,4.88,4.88-2.19,4.88-4.88-2.19-4.88-4.88-4.88Z"/>
        <path class="cls-2" d="M13.77,45.94c-.76-.02-7.44-.26-7.44-3.35v-10.04c0-2.9,4.93-4.15,7.45-4.15v1c-2.27,0-6.45,1.2-6.45,3.15v10.04c0,1.8,4.79,2.32,6.46,2.35l-.02,1Z"/>
        <path class="cls-2" d="M52.65,33.83h-10.94v-8.56h5.94l5,8.56ZM42.71,32.83h8.2l-3.83-6.56h-4.37v6.56Z"/>
      </g>
    </g>
  </g>
</svg>